<?xml version="1.0" encoding="utf-8"?>
<!-- Generator: Adobe Illustrator 19.0.0, SVG Export Plug-In . SVG Version: 6.00 Build 0)  -->
<svg version="1.1" id="github" xmlns="http://www.w3.org/2000/svg" xmlns:xlink="http://www.w3.org/1999/xlink" 
	 viewBox="-41 164.9 512 512" style="enable-background:new -41 164.9 512 512;" xml:space="preserve">
<path d="M215,220.7c-113.7,0-206,92.2-206,206c0,91,59,168.2,140.9,195.5c10.3,1.9,13.6-4.5,13.6-9.9v-38.4
	c-57.3,12.5-69.2-24.3-69.2-24.3c-9.4-23.8-22.9-30.1-22.9-30.1c-18.7-12.8,1.4-12.5,1.4-12.5c20.7,1.4,31.6,21.2,31.6,21.2
	c18.4,31.5,48.2,22.4,59.9,17.1c1.8-13.3,7.2-22.4,13.1-27.5c-45.7-5.2-93.9-22.9-93.9-101.8c0-22.5,8.1-40.9,21.2-55.3
	c-2.1-5.2-9.2-26.2,2-54.5c0,0,17.3-5.5,56.7,21.1c16.4-4.6,34-6.8,51.6-6.9c17.5,0.1,35.1,2.4,51.6,6.9
	c39.3-26.6,56.6-21.1,56.6-21.1c11.2,28.4,4.2,49.3,2,54.5c13.2,14.4,21.2,32.8,21.2,55.3c0,79.1-48.2,96.5-94.1,101.6
	c7.4,6.4,14.1,18.9,14.1,38.1v56.5c0,5.5,3.3,11.9,13.8,9.9C362,594.9,421,517.7,421,426.7C421,312.9,328.8,220.7,215,220.7z"/>
</svg>
